<svg width="135" height="30" viewBox="0 0 135 30" fill="none" xmlns="http://www.w3.org/2000/svg">
<path d="M23.3596 20.0003C22.1952 20.0003 21.1415 20.4766 20.3791 21.2455L19.928 21.7968L8.28179 15.7608L8.29358 15.7288C8.38344 15.3841 8.43063 15.023 8.43063 14.6509C8.43063 14.2788 8.38344 13.9167 8.29358 13.5729L8.28269 13.5409L19.9226 7.50856L19.2981 6.18839L7.66735 12.2152L7.0284 11.4838C6.28236 10.8091 5.29671 10.3995 4.21577 10.3995C1.88689 10.3995 0 12.3021 0 14.6499C0 16.9969 1.88689 18.9004 4.21577 18.9004C5.29671 18.9004 6.28236 18.4908 7.0284 17.8161L7.66644 17.0856L19.3145 23.1225L19.231 23.394C19.1747 23.6711 19.1457 23.9572 19.1457 24.2507C19.1457 26.5977 21.0335 28.5012 23.3614 28.5012C25.6903 28.5012 27.5772 26.5977 27.5772 24.2507C27.5772 21.9038 25.6885 20.0003 23.3596 20.0003ZM4.21486 17.3471C2.74093 17.3471 1.54109 16.1375 1.54109 14.6509C1.54109 13.1643 2.74093 11.9547 4.21486 11.9547C5.6897 11.9547 6.88863 13.1643 6.88863 14.6509C6.88863 16.1375 5.68879 17.3471 4.21486 17.3471ZM23.3596 26.9478C21.8848 26.9478 20.6859 25.7382 20.6859 24.2516C20.6859 22.765 21.8857 21.5554 23.3596 21.5554C24.8336 21.5554 26.0334 22.765 26.0334 24.2516C26.0334 25.7382 24.8345 26.9478 23.3596 26.9478Z" fill="black"/>
<path d="M19.9207 7.50952C20.684 8.59384 21.9411 9.30055 23.3605 9.30055C25.6894 9.30055 27.5772 7.39703 27.5772 5.0501C27.5772 2.70225 25.6894 0.799641 23.3605 0.799641C21.0326 0.799641 19.1448 2.70225 19.1448 5.0501C19.1448 5.44415 19.1983 5.82539 19.2982 6.18745L19.9207 7.50952ZM23.3596 2.3539C24.8354 2.3539 26.0343 3.56349 26.0343 5.0501C26.0343 6.5367 24.8345 7.74628 23.3596 7.74628C21.8848 7.74628 20.6859 6.5367 20.6859 5.0501C20.6859 3.56349 21.8857 2.3539 23.3596 2.3539Z" fill="black"/>
<path d="M35.2217 7.94007H38.7686L42.2737 16.1868L45.7706 7.94007H49.2994L43.3955 21.9156H41.1383L35.2217 7.94007Z" fill="#1B1B1B"/>
<path d="M65.2318 15.9428H54.0493C54.2109 16.9366 54.642 17.7265 55.3435 18.3125C56.0451 18.8995 56.9391 19.1921 58.0273 19.1921C59.3279 19.1921 60.446 18.734 61.3808 17.8179L64.3133 19.2049C63.5818 20.2499 62.7068 21.0224 61.6867 21.5235C60.6666 22.0245 59.4549 22.275 58.0527 22.275C55.8763 22.275 54.1038 21.5838 52.7351 20.2005C51.3665 18.8181 50.6821 17.0856 50.6821 15.0047C50.6821 12.8726 51.3646 11.1017 52.7288 9.6937C54.0929 8.28481 55.8037 7.58082 57.8612 7.58082C60.0458 7.58082 61.8228 8.28572 63.1915 9.6937C64.5601 11.1026 65.2445 12.9622 65.2445 15.2744L65.2318 15.9428ZM61.7511 13.1816C61.5215 12.4027 61.0677 11.7691 60.3907 11.2809C59.7136 10.7927 58.9285 10.5485 58.0345 10.5485C57.0643 10.5485 56.2121 10.8228 55.4806 11.3705C55.0204 11.7133 54.5948 12.3167 54.2036 13.1816H61.7511Z" fill="#1B1B1B"/>
<path d="M67.6675 2.5459H71.1481V21.9157H67.6675V2.5459Z" fill="#1B1B1B"/>
<path d="M80.8265 7.58082C82.1353 7.58082 83.366 7.91087 84.5177 8.57006C85.6694 9.22925 86.5689 10.1243 87.2142 11.2544C87.8604 12.3844 88.1835 13.605 88.1835 14.9151C88.1835 16.2335 87.8586 17.4668 87.2078 18.6143C86.5571 19.7617 85.6713 20.6586 84.5495 21.305C83.4277 21.9513 82.1906 22.275 80.8392 22.275C78.8498 22.275 77.1517 21.5619 75.7449 20.1365C74.3381 18.7112 73.6348 16.9786 73.6348 14.9407C73.6348 12.7574 74.4298 10.9371 76.019 9.48159C77.4131 8.21441 79.0159 7.58082 80.8265 7.58082ZM80.8837 10.8823C79.8019 10.8823 78.9015 11.2608 78.1827 12.0187C77.463 12.7766 77.1036 13.7467 77.1036 14.9279C77.1036 16.1439 77.4594 17.1286 78.17 17.8819C78.8807 18.6353 79.781 19.012 80.871 19.012C81.961 19.012 82.8677 18.6307 83.592 17.8691C84.3153 17.1075 84.6774 16.1265 84.6774 14.9279C84.6774 13.7293 84.3217 12.7547 83.611 12.0059C82.8995 11.2571 81.991 10.8823 80.8837 10.8823Z" fill="#1B1B1B"/>
<path d="M104.607 10.7661L101.709 12.3715C101.165 11.7983 100.626 11.3997 100.095 11.1766C99.5628 10.9544 98.9393 10.8429 98.2241 10.8429C96.9217 10.8429 95.8689 11.2342 95.0648 12.0159C94.2606 12.7985 93.8586 13.8005 93.8586 15.0229C93.8586 16.2115 94.2461 17.1824 95.0203 17.934C95.7945 18.6864 96.8119 19.0622 98.0716 19.0622C99.629 19.0622 100.842 18.5273 101.71 17.4567L104.455 19.3502C102.967 21.2994 100.867 22.274 98.156 22.274C95.7164 22.274 93.8059 21.5463 92.4246 20.0907C91.0432 18.6352 90.3525 16.931 90.3525 14.9781C90.3525 13.625 90.6883 12.3789 91.36 11.2406C92.0316 10.1014 92.9682 9.20725 94.1717 8.55628C95.3742 7.90532 96.7193 7.57984 98.2077 7.57984C99.5846 7.57984 100.822 7.85595 101.918 8.40817C103.013 8.96131 103.91 9.74758 104.607 10.7661Z" fill="#1B1B1B"/>
<path d="M109.101 2.18567C109.711 2.18567 110.235 2.40875 110.672 2.854C111.108 3.29925 111.326 3.83867 111.326 4.47226C111.326 5.09762 111.11 5.63064 110.678 6.07132C110.246 6.51292 109.729 6.73325 109.127 6.73325C108.508 6.73325 107.981 6.50834 107.544 6.05852C107.107 5.6087 106.89 5.06288 106.89 4.42106C106.89 3.80484 107.106 3.27822 107.538 2.8412C107.97 2.40417 108.491 2.18567 109.101 2.18567ZM107.361 7.94009H110.842V21.9157H107.361V7.94009Z" fill="#1B1B1B"/>
<path d="M114.426 2.79H117.906V7.94101H119.972V10.9599H117.906V21.9166H114.426V10.959H112.641V7.9401H114.426V2.79Z" fill="#1B1B1B"/>
<path d="M120.294 7.94007H123.852L127.456 16.7089L131.432 7.94007H135L126.311 27.0273H122.716L125.569 20.8725L120.294 7.94007Z" fill="#1B1B1B"/>
</svg>
